# xmcd
#
# Track frame offsets: 
#        150
#        14021
#        27072
#        39668
#        51477
#        64121
#        77135
#        86122
#        100399
#        109915
#        121420
#        135167
#        147540
#        160677
#        174688
#        187357
#        198587
#        210780
#        223772
#        237557
#        251298
#        265274
#        278234
#        291697
#
# Disc length: 4085 seconds
#
# Revision: 0
# Processed by: cddbd v1.5.2PL0 Copyright (c) Steve Scherf et al.
# Submitted via: ExactAudioCopyFreeDBPlugin 1.0
#
DISCID=790ff318
DTITLE=Little Walter - Rock Bottom [CD2)
DYEAR=2011
DGENRE=Blues
TTITLE0=Your'd Better Watch Yourself
TTITLE1=Roller Coaster
TTITLE2=One More Chance With You
TTITLE3=Mellow Down Easy
TTITLE4=Thunderbird
TTITLE5=Tonight With A Fool
TTITLE6=Temperature
TTITLE7=Quarter To Twelve
TTITLE8=Nobody But You
TTITLE9=Me And Piney Brown
TTITLE10=Flying Saucer
TTITLE11=Lights Out
TTITLE12=It Ain't Right
TTITLE13=Rocker
TTITLE14=That's Alright
TTITLE15=I Just Keep Loving Her
TTITLE16=I Got To Go
TTITLE17=Everybody Needs Somebody
TTITLE18=Don't Have To Hurt No More
TTITLE19=Confessin' The Blues
TTITLE20=Take Me Back
TTITLE21=Ah'w Baby
TTITLE22=Can't Hold Out Much Longer
TTITLE23=Blue Light
EXTD=
EXTT0=
EXTT1=
EXTT2=
EXTT3=
EXTT4=
EXTT5=
EXTT6=
EXTT7=
EXTT8=
EXTT9=
EXTT10=
EXTT11=
EXTT12=
EXTT13=
EXTT14=
EXTT15=
EXTT16=
EXTT17=
EXTT18=
EXTT19=
EXTT20=
EXTT21=
EXTT22=
EXTT23=
PLAYORDER=
